<!-- Generated by IcoMoon.io -->
<svg version="1.1" xmlns="http://www.w3.org/2000/svg" width="30" height="32" viewBox="0 0 30 32">
<title>cart</title>
<path d="M4.378 2.117h-4.378v-1.412h4.378c1.272 0 2.356 0.925 2.556 2.181l0.592 3.719h20.438c1.075 0 1.862 1.013 1.596 2.055l-1.789 6.997c-0.399 1.562-1.807 2.655-3.419 2.655h-14.962l0.387 2.429c0.091 0.571 0.583 0.992 1.162 0.992h15.606v1.412h-15.606c-1.272 0-2.356-0.925-2.556-2.181l-2.842-17.855c-0.091-0.571-0.583-0.992-1.162-0.992zM9.165 16.901h15.187c0.968 0 1.812-0.656 2.052-1.593l1.789-6.997c0.038-0.149-0.074-0.294-0.228-0.294h-20.213l1.414 8.883z"></path>
<path d="M12.771 29.954c-0.705 0-1.364-0.608-1.364-1.468s0.659-1.468 1.364-1.468c0.705 0 1.364 0.608 1.364 1.468s-0.659 1.468-1.364 1.468zM12.771 31.365c1.533 0 2.776-1.29 2.776-2.88s-1.243-2.88-2.776-2.88c-1.533 0-2.776 1.29-2.776 2.88s1.243 2.88 2.776 2.88z"></path>
<path d="M24.985 29.954c-0.705 0-1.364-0.608-1.364-1.468s0.659-1.468 1.364-1.468c0.705 0 1.364 0.608 1.364 1.468s-0.659 1.468-1.364 1.468zM24.985 31.365c1.533 0 2.776-1.29 2.776-2.88s-1.243-2.88-2.776-2.88c-1.533 0-2.776 1.29-2.776 2.88s1.243 2.88 2.776 2.88z"></path>
</svg>
