<!-- Generated by IcoMoon.io -->
<svg version="1.1" xmlns="http://www.w3.org/2000/svg" width="33" height="32" viewBox="0 0 33 32">
<title>compare</title>
<path d="M33.223 16.035l-0.028 0.014-4.775-11.883h2.179c0.391 0 0.707-0.317 0.707-0.707s-0.317-0.707-0.707-0.707h-13.312v-2.044c0-0.391-0.317-0.707-0.707-0.707s-0.707 0.317-0.707 0.707v2.037h-13.305c-0.391 0-0.707 0.317-0.707 0.707s0.317 0.707 0.707 0.707h2.271l-4.782 11.876c-0.035 0.083-0.055 0.172-0.057 0.262 0 3.248 2.633 5.881 5.881 5.881s5.881-2.633 5.881-5.881c-0.002-0.090-0.021-0.179-0.057-0.262l-4.774-11.883h8.941v21.871c-3.374 0.255-6.012 2.306-6.012 4.789 0 0.391 0.317 0.707 0.707 0.707h12.025c0.391 0 0.707-0.317 0.707-0.707 0-2.483-2.638-4.534-6.012-4.789v-21.871h9.033l-4.746 11.883c-0.035 0.083-0.055 0.172-0.057 0.262 0 3.248 2.633 5.881 5.881 5.881s5.881-2.633 5.881-5.881c-0.002-0.090-0.021-0.179-0.057-0.262zM5.878 20.774c-2.191-0.003-4.057-1.593-4.407-3.756h8.785c-0.348 2.152-2.198 3.739-4.378 3.756zM10.002 15.604h-8.233l4.124-10.263 4.11 10.263zM21.758 30.104h-10.362c0.523-1.521 2.681-2.695 5.178-2.695s4.661 1.174 5.185 2.695zM27.367 5.347l4.11 10.256h-8.233l4.124-10.256zM27.367 20.774v0.007c-2.182-0.017-4.033-1.608-4.378-3.763h8.785c-0.35 2.163-2.216 3.753-4.407 3.756z"></path>
</svg>
