<!-- Generated by IcoMoon.io -->
<svg version="1.1" xmlns="http://www.w3.org/2000/svg" width="44" height="32" viewBox="0 0 44 32">
<title>email</title>
<path d="M19.939 17.107l-18.215-13.662 1.477-1.969 18.215 13.662c0.438 0.328 1.039 0.328 1.477 0l18.215-13.662 1.477 1.969-18.215 13.662c-1.313 0.985-3.118 0.985-4.431 0z"></path>
<path d="M39.385 2.462c1.359 0 2.462 1.102 2.462 2.462v22.154c0 1.36-1.102 2.462-2.462 2.462h-34.462c-1.359 0-2.462-1.102-2.462-2.462v-22.154c0-1.359 1.102-2.462 2.462-2.462h34.462zM4.923 0c-2.719 0-4.923 2.204-4.923 4.923v22.154c0 2.719 2.204 4.923 4.923 4.923h34.462c2.719 0 4.923-2.204 4.923-4.923v-22.154c0-2.719-2.204-4.923-4.923-4.923h-34.462z"></path>
</svg>
