<!-- Generated by IcoMoon.io -->
<svg version="1.1" xmlns="http://www.w3.org/2000/svg" width="36" height="32" viewBox="0 0 36 32">
<title>favorite</title>
<path d="M25.729 0c-3.051 0-5.907 1.291-7.808 3.455-1.902-2.164-4.758-3.455-7.809-3.455-5.575 0-10.111 4.24-10.111 9.453 0 4.081 2.603 8.802 7.737 14.031 3.951 4.024 8.249 7.14 9.473 7.999l0.71 0.498 0.71-0.498c1.223-0.859 5.522-3.975 9.473-7.999 5.134-5.229 7.738-9.95 7.738-14.031 0-5.212-4.536-9.453-10.111-9.453zM26.361 21.99c-3.25 3.31-6.746 5.985-8.442 7.219-1.695-1.233-5.191-3.909-8.441-7.219-4.655-4.741-7.115-9.076-7.115-12.537 0-3.994 3.476-7.244 7.748-7.244 2.812 0 5.408 1.433 6.775 3.739l1.033 1.743 1.033-1.743c1.367-2.306 3.964-3.739 6.775-3.739 4.273 0 7.748 3.249 7.748 7.244 0 3.461-2.46 7.797-7.116 12.537z"></path>
</svg>
