<!-- Generated by IcoMoon.io -->
<svg version="1.1" xmlns="http://www.w3.org/2000/svg" width="21" height="32" viewBox="0 0 21 32">
<title>location</title>
<path d="M10.353 0c-5.709 0-10.353 4.895-10.353 10.913 0 2.033 0.534 4.017 1.545 5.738l8.218 13.96c0.157 0.267 0.435 0.43 0.733 0.43 0.002 0 0.005 0 0.007 0 0.301-0.003 0.579-0.17 0.733-0.442l8.009-14.095c0.955-1.685 1.46-3.618 1.46-5.591 0-6.017-4.644-10.913-10.353-10.913zM17.765 15.57l-7.281 12.814-7.472-12.691c-0.842-1.433-1.298-3.086-1.298-4.78 0-5.014 3.882-9.106 8.639-9.106s8.633 4.092 8.633 9.106c0 1.644-0.426 3.255-1.221 4.657z"></path>
<path d="M10.353 4.599c-3.171 0-5.752 2.579-5.752 5.748 0 3.149 2.538 5.748 5.752 5.748 3.253 0 5.752-2.634 5.752-5.748 0-3.17-2.58-5.748-5.752-5.748zM10.353 14.193c-2.125 0-3.847-1.727-3.847-3.845 0-2.113 1.733-3.845 3.847-3.845s3.841 1.732 3.841 3.845c0 2.087-1.682 3.845-3.841 3.845z"></path>
</svg>
