<!-- Generated by IcoMoon.io -->
<svg version="1.1" xmlns="http://www.w3.org/2000/svg" width="141" height="32" viewBox="0 0 141 32">
<title>logo</title>
<path d="M71.38 28.542c0 0 0.838-0.406 2.308-0.953 0.758 0.362 2.417 1.117 4.025 1.581 2.176 0.628 3.626 0.532 5.657 0.532s4.93-0.338 4.93-0.338-0.435-1.595-0.483-2.755c-0.048-1.16-0.048-1.354-0.048-1.354s-0.435 1.644-0.339 2.514c0.097 0.87 0.097 1.16 0.097 1.16s-3.819 0.387-6.526 0.097c-2.707-0.29-4.351-0.58-5.511-0.967-0.639-0.213-1.249-0.397-1.668-0.519 2.051-0.755 5.261-1.756 9.113-2.333 6.768-1.015 5.414-0.677 5.414-0.677s0.145-0.29 1.015-0.386c0.871-0.097 9.765-0.532 12.521-0.339s10.345 0.58 11.457 1.305c1.112 0.725 1.547 1.45 1.209 3.239s-1.015 3.529-1.643 3.142c-0.629-0.387-2.756-2.030-4.786-2.32s-4.255-0.242-5.173 0c-0.918 0.242-2.466 1.209-3.19 0.967s-2.175-1.595-3.335-1.112c-1.16 0.483-1.209 0.628-1.741 1.305s-1.257 1.451-1.837 0.725c-0.58-0.725-1.644-1.064-2.562-1.112s-1.741 0.242-1.983 0.483c-0.242 0.242-0.58 0.725-0.58 0.725s-1.499-0.387-3.239-0.193c-1.74 0.193-4.737 0.338-6.768-0.048s-6.333-2.369-6.333-2.369zM89.654 29.122c0 0 1.934-0.338 2.659 0.193s0.87 0.967 2.175-0.097c1.305-1.064 2.127-1.837 3.577-1.064s2.128 1.257 3.529 0.532c1.402-0.725 4.448-1.499 7.010-0.435s4.544 2.756 4.93 1.692c0.387-1.064 0.58-2.224-1.401-2.659s-4.931-0.919-7.638-0.483c-2.707 0.435-3.19 1.692-4.302 1.353s-2.32-1.353-3.674-0.822c-1.354 0.532-2.514 2.176-3.626 1.644s-1.886-1.015-2.562-0.677c-0.677 0.338-0.677 0.822-0.677 0.822z"></path>
<path d="M1.132 0.255v7.189h0.331c0.026-0.412 0.089-0.829 0.196-1.245 0.102-0.421 0.233-0.824 0.399-1.211 0.161-0.383 0.348-0.731 0.561-1.045 0.208-0.31 0.438-0.561 0.68-0.756 0.178-0.148 0.408-0.289 0.692-0.425s0.625-0.247 1.020-0.331c0.4-0.089 0.854-0.132 1.372-0.136h5.405l-11.37 15.653 0.051 0.153h16.443v-8.26h-0.331c-0.026 0.468-0.073 0.943-0.14 1.423-0.072 0.48-0.17 0.948-0.297 1.402-0.132 0.455-0.298 0.875-0.501 1.266-0.204 0.387-0.45 0.722-0.744 1.007-0.37 0.344-0.76 0.595-1.168 0.756-0.412 0.161-0.82 0.263-1.232 0.306-0.408 0.047-0.799 0.064-1.168 0.059h-5.608l11.319-15.653-0.127-0.153h-15.78zM22.036 15.245c0.004 0.208-0.004 0.42-0.030 0.641-0.021 0.221-0.081 0.442-0.17 0.654s-0.238 0.412-0.438 0.591c-0.191 0.157-0.404 0.28-0.646 0.361-0.238 0.085-0.484 0.144-0.739 0.178s-0.497 0.059-0.731 0.072l-0.433 0.025v0.331h17.896v-7.75h-0.331l-0.076 0.791c-0.038 0.42-0.098 0.837-0.174 1.262-0.081 0.421-0.208 0.829-0.391 1.224-0.179 0.4-0.442 0.765-0.786 1.109-0.106 0.111-0.263 0.242-0.467 0.391s-0.463 0.293-0.782 0.434c-0.319 0.145-0.701 0.264-1.147 0.357s-0.964 0.14-1.555 0.144h-5.838v-12.95c-0.004-0.149 0.004-0.336 0.030-0.556 0.021-0.221 0.081-0.45 0.17-0.688 0.094-0.238 0.238-0.45 0.438-0.642 0.183-0.161 0.395-0.28 0.637-0.361 0.247-0.085 0.497-0.145 0.756-0.179 0.255-0.034 0.497-0.059 0.722-0.072l0.433-0.025v-0.331h-9.534v0.331l0.433 0.025c0.225 0.013 0.468 0.038 0.727 0.072 0.255 0.034 0.506 0.094 0.752 0.179 0.242 0.080 0.455 0.2 0.637 0.361 0.2 0.191 0.348 0.403 0.438 0.642s0.149 0.467 0.17 0.688c0.025 0.221 0.034 0.408 0.030 0.556v12.135zM46.153 0l-5.557 13.409c-0.187 0.437-0.357 0.811-0.51 1.117s-0.285 0.561-0.399 0.765c-0.115 0.2-0.213 0.361-0.289 0.489-0.081 0.136-0.196 0.302-0.336 0.489s-0.319 0.378-0.535 0.573c-0.213 0.191-0.467 0.366-0.769 0.519-0.297 0.153-0.642 0.263-1.037 0.331l-0.484 0.076v0.331h9.152v-0.331l-0.637-0.051c-0.251-0.017-0.518-0.060-0.803-0.127s-0.552-0.174-0.807-0.314c-0.255-0.14-0.467-0.323-0.633-0.553-0.136-0.191-0.23-0.416-0.285-0.68-0.051-0.259-0.068-0.527-0.043-0.803 0.021-0.272 0.080-0.527 0.174-0.761l0.969-2.371h6.526l1.147 2.804c0.068 0.157 0.123 0.327 0.174 0.514 0.051 0.191 0.076 0.374 0.081 0.557-0.004 0.378-0.077 0.68-0.221 0.901-0.14 0.225-0.323 0.391-0.544 0.501-0.115 0.068-0.255 0.123-0.416 0.166s-0.357 0.081-0.595 0.11c-0.238 0.030-0.531 0.055-0.875 0.081l-0.383 0.025v0.331h9.993v-0.331l-0.408-0.025c-0.302-0.017-0.599-0.068-0.892-0.153-0.293-0.081-0.561-0.187-0.807-0.314-0.251-0.127-0.455-0.272-0.62-0.425-0.149-0.149-0.293-0.344-0.429-0.582-0.14-0.242-0.293-0.561-0.467-0.96-0.17-0.395-0.383-0.901-0.633-1.517l-5.634-13.792h-2.167zM49.212 10.325h-5.252l2.6-6.271h0.051l2.6 6.271zM65.91 2.294h1.886c0.149-0.004 0.336 0.004 0.561 0.021s0.467 0.051 0.731 0.11c0.264 0.055 0.527 0.144 0.79 0.264 0.268 0.123 0.514 0.289 0.748 0.497 0.213 0.196 0.404 0.455 0.578 0.782 0.17 0.327 0.323 0.688 0.45 1.083 0.132 0.399 0.238 0.803 0.319 1.211s0.132 0.794 0.157 1.156h0.331v-7.164h-16.264v7.164h0.331c0.025-0.361 0.080-0.748 0.161-1.156 0.077-0.408 0.183-0.812 0.314-1.211 0.128-0.395 0.28-0.756 0.455-1.083 0.17-0.327 0.361-0.587 0.574-0.782 0.234-0.208 0.48-0.373 0.748-0.497 0.264-0.119 0.527-0.208 0.791-0.264 0.263-0.060 0.506-0.094 0.731-0.11s0.412-0.026 0.561-0.021h1.886v12.951c0.004 0.149-0.004 0.336-0.030 0.557-0.021 0.221-0.080 0.45-0.17 0.688-0.089 0.233-0.238 0.45-0.438 0.642-0.183 0.157-0.395 0.28-0.637 0.361-0.247 0.085-0.497 0.14-0.752 0.178-0.259 0.034-0.501 0.055-0.726 0.072l-0.434 0.025v0.331h9.534v-0.331l-0.433-0.025c-0.225-0.017-0.467-0.038-0.722-0.072-0.259-0.038-0.51-0.093-0.756-0.178-0.242-0.081-0.454-0.204-0.637-0.361-0.2-0.191-0.344-0.408-0.438-0.642-0.089-0.238-0.149-0.467-0.17-0.688-0.025-0.221-0.034-0.408-0.030-0.557v-12.951zM98.389 0.255h-7.648l-4.767 12.109h-0.077l-4.767-12.109h-7.954v0.331l0.433 0.025c0.225 0.013 0.467 0.038 0.726 0.072 0.255 0.034 0.505 0.094 0.752 0.179 0.243 0.080 0.455 0.2 0.638 0.361 0.199 0.191 0.348 0.403 0.438 0.642s0.148 0.467 0.17 0.688c0.025 0.221 0.034 0.408 0.030 0.556v11.625c0.004 0.196-0.008 0.433-0.034 0.714s-0.086 0.565-0.179 0.85c-0.089 0.285-0.234 0.527-0.425 0.731-0.166 0.161-0.378 0.293-0.629 0.395s-0.51 0.178-0.773 0.229c-0.268 0.051-0.506 0.081-0.714 0.089l-0.433 0.025v0.331h8.591v-0.331l-0.433-0.025c-0.208-0.009-0.446-0.038-0.714-0.089-0.263-0.051-0.522-0.127-0.773-0.229s-0.464-0.234-0.629-0.395c-0.153-0.157-0.272-0.34-0.357-0.553-0.089-0.212-0.153-0.429-0.191-0.654-0.038-0.221-0.063-0.429-0.076-0.62-0.009-0.196-0.013-0.348-0.013-0.467v-12.007h0.077l6.067 15.372h1.173l6.067-15.372h0.077v12.517c0.004 0.149-0.004 0.336-0.030 0.557-0.022 0.221-0.077 0.45-0.17 0.688-0.089 0.233-0.237 0.45-0.438 0.642-0.182 0.157-0.395 0.28-0.637 0.361-0.246 0.085-0.497 0.14-0.752 0.178-0.259 0.034-0.501 0.055-0.726 0.072l-0.433 0.025v0.331h9.534v-0.331l-0.434-0.025c-0.225-0.017-0.467-0.038-0.723-0.072-0.259-0.038-0.509-0.093-0.752-0.178-0.246-0.081-0.459-0.204-0.641-0.361-0.2-0.191-0.344-0.408-0.438-0.642-0.089-0.238-0.149-0.467-0.17-0.688s-0.034-0.408-0.029-0.557v-12.135c-0.004-0.149 0.008-0.336 0.029-0.556s0.081-0.45 0.17-0.688c0.094-0.238 0.237-0.45 0.438-0.642 0.182-0.161 0.395-0.28 0.641-0.361 0.243-0.085 0.493-0.145 0.752-0.179 0.255-0.034 0.498-0.059 0.723-0.072l0.434-0.025v-0.331zM107.744 0l-5.557 13.409c-0.187 0.437-0.357 0.811-0.51 1.117s-0.285 0.561-0.4 0.765c-0.115 0.2-0.213 0.361-0.289 0.489-0.081 0.136-0.196 0.302-0.336 0.489s-0.319 0.378-0.536 0.573c-0.212 0.191-0.467 0.366-0.769 0.519-0.298 0.153-0.641 0.263-1.037 0.331l-0.484 0.076v0.331h9.152v-0.331l-0.638-0.051c-0.25-0.017-0.518-0.060-0.803-0.127s-0.552-0.174-0.807-0.314c-0.254-0.14-0.467-0.323-0.633-0.553-0.136-0.191-0.229-0.416-0.284-0.68-0.051-0.259-0.068-0.527-0.043-0.803 0.022-0.272 0.081-0.527 0.175-0.761l0.968-2.371h6.526l1.147 2.804c0.068 0.157 0.124 0.327 0.174 0.514 0.051 0.191 0.077 0.374 0.081 0.557-0.004 0.378-0.077 0.68-0.221 0.901-0.14 0.225-0.323 0.391-0.544 0.501-0.115 0.068-0.254 0.123-0.416 0.166s-0.357 0.081-0.595 0.11c-0.237 0.030-0.531 0.055-0.875 0.081l-0.382 0.025v0.331h9.994v-0.331l-0.408-0.025c-0.302-0.017-0.6-0.068-0.892-0.153-0.293-0.081-0.561-0.187-0.807-0.314-0.251-0.127-0.455-0.272-0.621-0.425-0.148-0.149-0.292-0.344-0.429-0.582-0.141-0.242-0.293-0.561-0.467-0.96-0.17-0.395-0.382-0.901-0.633-1.517l-5.633-13.792h-2.168zM110.804 10.325h-5.252l2.6-6.271h0.051l2.601 6.271zM118.885 0.255v0.331l0.484 0.102c0.31 0.072 0.629 0.208 0.956 0.403s0.641 0.42 0.943 0.68c0.302 0.259 0.57 0.518 0.804 0.777l5.889 6.552-4.971 5.787c-0.085 0.106-0.208 0.233-0.361 0.386s-0.323 0.315-0.502 0.48c-0.182 0.166-0.353 0.319-0.518 0.459-0.162 0.14-0.298 0.251-0.404 0.331-0.4 0.293-0.833 0.548-1.3 0.756-0.463 0.208-0.922 0.365-1.377 0.467v0.331h10.019v-0.331l-0.612-0.051c-0.48-0.043-0.85-0.098-1.113-0.161-0.259-0.068-0.433-0.115-0.519-0.144-0.182-0.068-0.353-0.153-0.513-0.268-0.162-0.11-0.298-0.251-0.4-0.429-0.102-0.174-0.153-0.391-0.157-0.654 0.004-0.2 0.059-0.408 0.162-0.629s0.217-0.425 0.348-0.612c0.132-0.187 0.242-0.336 0.331-0.442l3.238-3.773 3.492 3.849c0.182 0.196 0.353 0.4 0.514 0.608 0.161 0.212 0.297 0.425 0.399 0.646 0.102 0.217 0.153 0.438 0.157 0.659-0.004 0.251-0.072 0.459-0.208 0.625-0.132 0.161-0.31 0.293-0.531 0.395-0.234 0.115-0.505 0.2-0.807 0.255s-0.604 0.089-0.901 0.102l-0.739 0.025v0.331h10.707v-0.331c-0.281-0.034-0.586-0.106-0.913-0.217-0.332-0.11-0.68-0.285-1.050-0.522-0.463-0.323-0.913-0.71-1.343-1.169-0.429-0.455-0.884-0.956-1.36-1.508l-5.43-6.068 3.442-3.977c0.246-0.285 0.506-0.587 0.778-0.909 0.276-0.323 0.569-0.637 0.883-0.943 0.311-0.306 0.65-0.582 1.016-0.824 0.226-0.144 0.472-0.285 0.748-0.416s0.565-0.242 0.866-0.34c0.298-0.098 0.591-0.17 0.884-0.213l0.51-0.076v-0.331h-10.248v0.331l0.637 0.051c0.468 0.038 0.851 0.106 1.148 0.2s0.527 0.208 0.688 0.336c0.188 0.14 0.323 0.293 0.4 0.463 0.077 0.174 0.115 0.365 0.111 0.582-0.004 0.255-0.039 0.48-0.111 0.684-0.068 0.2-0.153 0.374-0.255 0.527s-0.199 0.285-0.297 0.395l-2.55 2.983-3.62-4.028c-0.136-0.153-0.234-0.289-0.285-0.408s-0.077-0.229-0.072-0.331c-0.004-0.196 0.042-0.387 0.149-0.573 0.102-0.187 0.289-0.353 0.565-0.497 0.132-0.060 0.285-0.115 0.463-0.161s0.362-0.085 0.544-0.115c0.183-0.026 0.348-0.047 0.497-0.055l0.586-0.051v-0.331h-9.891z"></path>
<path d="M0.366 26.502c0.109-0.069 0.23-0.131 0.363-0.189s0.272-0.104 0.419-0.14c0.148-0.036 0.298-0.054 0.45-0.055 0.211 0 0.396 0.036 0.553 0.108 0.159 0.073 0.281 0.177 0.369 0.316 0.087 0.14 0.133 0.31 0.134 0.511-0.002 0.151-0.037 0.292-0.108 0.423-0.070 0.131-0.169 0.244-0.295 0.343-0.125 0.099-0.272 0.176-0.441 0.231-0.167 0.055-0.349 0.083-0.544 0.084h-0.34v0.576h0.349c0.152 0 0.303 0.010 0.454 0.033 0.153 0.022 0.297 0.060 0.434 0.112 0.135 0.053 0.257 0.123 0.364 0.209s0.191 0.195 0.252 0.323c0.063 0.128 0.093 0.281 0.095 0.457 0 0.217-0.052 0.409-0.156 0.576-0.105 0.169-0.256 0.3-0.455 0.396-0.201 0.095-0.444 0.144-0.734 0.146-0.164-0.002-0.327-0.019-0.489-0.053-0.163-0.034-0.316-0.077-0.458-0.131-0.144-0.054-0.271-0.112-0.38-0.175l-0.2 0.594c0.23 0.134 0.476 0.233 0.739 0.294s0.529 0.092 0.797 0.090c0.217 0 0.428-0.020 0.634-0.061 0.208-0.041 0.401-0.103 0.582-0.189s0.34-0.196 0.479-0.33c0.138-0.135 0.246-0.295 0.324-0.483s0.118-0.403 0.119-0.648c-0.006-0.284-0.070-0.53-0.195-0.739s-0.294-0.378-0.509-0.504c-0.216-0.125-0.46-0.202-0.736-0.233v-0.017c0.23-0.054 0.435-0.149 0.617-0.283s0.328-0.3 0.434-0.498c0.106-0.197 0.16-0.417 0.163-0.66-0.003-0.304-0.076-0.564-0.221-0.777s-0.346-0.378-0.605-0.492c-0.259-0.113-0.559-0.17-0.902-0.171-0.321 0.001-0.611 0.044-0.869 0.123-0.256 0.082-0.485 0.188-0.685 0.322l0.2 0.559zM5.098 25.603v2.48c0.002 0.237-0.003 0.482-0.015 0.732-0.010 0.25-0.032 0.492-0.066 0.726-0.035 0.234-0.086 0.446-0.156 0.635s-0.163 0.34-0.279 0.457c-0.073 0.071-0.163 0.137-0.273 0.197-0.111 0.058-0.226 0.098-0.346 0.118l0.096 0.611c0.115-0.001 0.227-0.014 0.339-0.042 0.11-0.026 0.215-0.061 0.313-0.104s0.182-0.086 0.256-0.134c0.163-0.113 0.299-0.258 0.407-0.431 0.108-0.175 0.194-0.371 0.257-0.589 0.064-0.22 0.112-0.453 0.143-0.7 0.032-0.249 0.052-0.502 0.061-0.762 0.010-0.261 0.015-0.518 0.013-0.774v-1.781h1.938v5.247h0.768v-5.884h-3.457zM12.912 29.636l0.629 1.851h0.812l-2.008-5.884h-0.908l-2.008 5.884h0.786l0.611-1.851h2.087zM10.982 29.042l0.576-1.702c0.061-0.18 0.115-0.36 0.162-0.54 0.048-0.179 0.093-0.355 0.135-0.525h0.017c0.042 0.169 0.089 0.344 0.137 0.521s0.105 0.361 0.168 0.553l0.585 1.694h-1.781zM16.333 31.487h0.768v-5.238h1.799v-0.646h-4.356v0.646h1.789v5.238zM21.929 25.498c-0.394 0.001-0.758 0.074-1.088 0.22-0.332 0.145-0.618 0.354-0.863 0.624-0.245 0.272-0.434 0.597-0.568 0.975-0.135 0.38-0.203 0.803-0.205 1.272 0.002 0.446 0.066 0.852 0.194 1.219 0.128 0.366 0.308 0.681 0.543 0.946s0.514 0.468 0.837 0.612c0.323 0.143 0.68 0.216 1.072 0.217 0.301 0 0.589-0.044 0.861-0.13 0.272-0.084 0.523-0.213 0.749-0.381s0.425-0.377 0.592-0.627c0.168-0.249 0.299-0.537 0.39-0.865s0.138-0.694 0.14-1.097c-0.001-0.441-0.064-0.842-0.188-1.206-0.124-0.365-0.301-0.68-0.534-0.944-0.231-0.266-0.511-0.471-0.837-0.615-0.325-0.144-0.691-0.219-1.096-0.22zM21.903 26.118c0.253 0.002 0.48 0.047 0.681 0.137 0.202 0.089 0.376 0.212 0.526 0.368 0.15 0.157 0.275 0.338 0.374 0.541s0.173 0.422 0.223 0.652c0.048 0.231 0.073 0.466 0.073 0.703 0 0.336-0.042 0.652-0.125 0.946s-0.205 0.553-0.365 0.777c-0.162 0.224-0.358 0.4-0.593 0.528-0.234 0.126-0.502 0.191-0.803 0.194-0.242-0.002-0.461-0.044-0.659-0.127-0.198-0.084-0.373-0.201-0.525-0.351s-0.281-0.326-0.384-0.525c-0.105-0.201-0.183-0.419-0.237-0.655-0.052-0.236-0.080-0.48-0.080-0.735 0-0.257 0.025-0.508 0.076-0.748 0.049-0.24 0.125-0.464 0.227-0.67 0.101-0.205 0.227-0.386 0.378-0.541s0.329-0.275 0.531-0.361c0.202-0.087 0.429-0.131 0.682-0.132zM24.924 25.603l1.956 3.981c0.035 0.069 0.057 0.128 0.063 0.182s-0.006 0.112-0.036 0.176c-0.048 0.106-0.106 0.218-0.176 0.333-0.070 0.117-0.151 0.224-0.246 0.326s-0.202 0.183-0.323 0.247c-0.121 0.063-0.258 0.096-0.407 0.098-0.065 0-0.12-0.002-0.167-0.006s-0.086-0.012-0.121-0.020l-0.070 0.62c0.048 0.017 0.106 0.031 0.174 0.039 0.070 0.009 0.154 0.013 0.253 0.013 0.26 0 0.501-0.061 0.719-0.182 0.218-0.122 0.422-0.302 0.608-0.543 0.105-0.137 0.207-0.291 0.304-0.465 0.099-0.175 0.194-0.36 0.285-0.556s0.18-0.397 0.265-0.601c0.086-0.205 0.167-0.406 0.246-0.604l1.24-3.038h-0.803l-0.925 2.497c-0.070 0.208-0.134 0.4-0.192 0.575-0.058 0.173-0.113 0.335-0.166 0.482h-0.026c-0.066-0.17-0.133-0.341-0.202-0.512s-0.143-0.343-0.217-0.518l-1.17-2.523h-0.864zM34.072 30.692c-0.103 0.049-0.221 0.093-0.355 0.13s-0.276 0.064-0.428 0.084c-0.153 0.021-0.307 0.030-0.465 0.030-0.476-0.003-0.882-0.099-1.216-0.291s-0.591-0.464-0.768-0.817c-0.177-0.352-0.267-0.771-0.268-1.257 0.001-0.387 0.057-0.73 0.164-1.032 0.109-0.3 0.265-0.554 0.465-0.761 0.202-0.208 0.444-0.365 0.725-0.473s0.595-0.161 0.941-0.161c0.246 0.001 0.468 0.024 0.667 0.070s0.37 0.103 0.511 0.174l0.192-0.62c-0.067-0.036-0.164-0.074-0.291-0.115-0.127-0.040-0.282-0.074-0.465-0.102-0.185-0.029-0.399-0.043-0.641-0.045-0.458 0.002-0.874 0.076-1.25 0.223s-0.698 0.357-0.97 0.629-0.482 0.598-0.629 0.975c-0.148 0.378-0.222 0.8-0.224 1.264 0.003 0.485 0.076 0.912 0.22 1.285 0.144 0.371 0.346 0.683 0.609 0.935 0.26 0.253 0.566 0.443 0.918 0.573 0.351 0.128 0.735 0.194 1.153 0.194 0.24-0.001 0.46-0.015 0.661-0.041 0.2-0.027 0.378-0.063 0.529-0.105s0.272-0.086 0.364-0.134l-0.149-0.611zM36.298 31.487h0.768v-5.238h1.799v-0.646h-4.356v0.646h1.789v5.238zM41.894 25.498c-0.394 0.001-0.758 0.074-1.088 0.22-0.332 0.145-0.618 0.354-0.862 0.624-0.245 0.272-0.434 0.597-0.568 0.975-0.135 0.38-0.204 0.803-0.205 1.272 0.002 0.446 0.065 0.852 0.194 1.219 0.128 0.366 0.309 0.681 0.543 0.946s0.514 0.468 0.836 0.612c0.323 0.143 0.68 0.216 1.073 0.217 0.301 0 0.589-0.044 0.861-0.13 0.272-0.084 0.523-0.213 0.75-0.381s0.425-0.377 0.592-0.627c0.168-0.249 0.299-0.537 0.39-0.865s0.138-0.694 0.14-1.097c-0.001-0.441-0.064-0.842-0.188-1.206-0.123-0.365-0.301-0.68-0.534-0.944-0.231-0.266-0.511-0.471-0.837-0.615s-0.691-0.219-1.096-0.22zM41.868 26.118c0.253 0.002 0.48 0.047 0.681 0.137 0.202 0.089 0.377 0.212 0.527 0.368 0.15 0.157 0.275 0.338 0.374 0.541s0.173 0.422 0.222 0.652c0.048 0.231 0.073 0.466 0.073 0.703 0 0.336-0.042 0.652-0.125 0.946s-0.205 0.553-0.365 0.777c-0.162 0.224-0.358 0.4-0.593 0.528-0.234 0.126-0.502 0.191-0.803 0.194-0.242-0.002-0.461-0.044-0.659-0.127-0.198-0.084-0.373-0.201-0.525-0.351s-0.281-0.326-0.384-0.525c-0.105-0.201-0.183-0.419-0.237-0.655-0.052-0.236-0.080-0.48-0.080-0.735 0-0.257 0.025-0.508 0.076-0.748 0.049-0.24 0.125-0.464 0.227-0.67 0.101-0.205 0.227-0.386 0.378-0.541s0.329-0.275 0.531-0.361c0.202-0.087 0.429-0.131 0.682-0.132zM45.534 31.469c0.127 0.018 0.289 0.033 0.487 0.048 0.198 0.013 0.43 0.020 0.691 0.022 0.48 0 0.888-0.044 1.223-0.134 0.336-0.090 0.604-0.228 0.803-0.416 0.154-0.14 0.278-0.307 0.368-0.504s0.137-0.422 0.139-0.675c-0.002-0.218-0.040-0.412-0.111-0.579-0.073-0.167-0.167-0.313-0.286-0.432-0.12-0.121-0.249-0.218-0.392-0.294-0.141-0.076-0.284-0.129-0.425-0.161v-0.026c0.205-0.074 0.381-0.176 0.53-0.304s0.263-0.276 0.343-0.445c0.080-0.169 0.121-0.349 0.122-0.543-0.001-0.231-0.046-0.435-0.134-0.608-0.089-0.173-0.209-0.317-0.364-0.431-0.118-0.099-0.253-0.18-0.406-0.243s-0.329-0.109-0.525-0.14c-0.198-0.031-0.423-0.046-0.675-0.046-0.176 0-0.349 0.006-0.519 0.016-0.17 0.012-0.329 0.026-0.477 0.046-0.15 0.019-0.28 0.043-0.392 0.069v5.779zM46.294 26.196c0.060-0.015 0.143-0.026 0.25-0.036s0.249-0.016 0.422-0.016c0.258-0.002 0.483 0.032 0.674 0.098 0.192 0.065 0.342 0.169 0.448 0.311 0.106 0.141 0.16 0.324 0.161 0.551 0 0.191-0.051 0.361-0.151 0.511-0.1 0.148-0.245 0.266-0.434 0.352-0.188 0.087-0.415 0.131-0.681 0.133h-0.69v-1.903zM46.294 28.667h0.629c0.209 0 0.405 0.022 0.588 0.066 0.182 0.044 0.343 0.112 0.483 0.203s0.249 0.209 0.328 0.354c0.078 0.142 0.119 0.314 0.12 0.512-0.001 0.212-0.044 0.393-0.125 0.54s-0.193 0.265-0.335 0.354c-0.143 0.089-0.303 0.153-0.483 0.192s-0.37 0.060-0.568 0.058c-0.135 0-0.256-0.003-0.361-0.007-0.106-0.006-0.198-0.015-0.276-0.028v-2.243zM54.221 30.692c-0.103 0.049-0.221 0.093-0.355 0.13s-0.277 0.064-0.428 0.084c-0.153 0.021-0.307 0.030-0.465 0.030-0.476-0.003-0.882-0.099-1.217-0.291s-0.591-0.464-0.768-0.817c-0.178-0.352-0.267-0.771-0.268-1.257 0.001-0.387 0.056-0.73 0.165-1.032 0.109-0.3 0.265-0.554 0.465-0.761 0.202-0.208 0.444-0.365 0.725-0.473s0.595-0.161 0.941-0.161c0.246 0.001 0.468 0.024 0.668 0.070s0.37 0.103 0.511 0.174l0.192-0.62c-0.067-0.036-0.164-0.074-0.291-0.115-0.126-0.040-0.282-0.074-0.465-0.102-0.185-0.029-0.399-0.043-0.64-0.045-0.458 0.002-0.874 0.076-1.25 0.223s-0.698 0.357-0.97 0.629-0.482 0.598-0.629 0.975c-0.148 0.378-0.222 0.8-0.224 1.264 0.003 0.485 0.076 0.912 0.22 1.285 0.144 0.371 0.346 0.683 0.608 0.935 0.26 0.253 0.566 0.443 0.918 0.573 0.351 0.128 0.735 0.194 1.153 0.194 0.24-0.001 0.46-0.015 0.661-0.041 0.2-0.027 0.378-0.063 0.53-0.105s0.272-0.086 0.364-0.134l-0.149-0.611zM55.329 25.603v5.884h0.76v-2.698h0.245c0.247 0 0.46 0.032 0.637 0.095 0.176 0.064 0.327 0.153 0.451 0.269 0.123 0.115 0.228 0.253 0.314 0.413 0.087 0.16 0.163 0.337 0.23 0.532 0.055 0.156 0.111 0.315 0.166 0.476 0.055 0.163 0.114 0.321 0.174 0.477 0.061 0.154 0.128 0.3 0.201 0.435h0.812c-0.083-0.174-0.16-0.352-0.23-0.531-0.070-0.181-0.136-0.364-0.203-0.553s-0.138-0.383-0.213-0.584c-0.073-0.199-0.154-0.384-0.246-0.554-0.090-0.171-0.198-0.322-0.324-0.454-0.125-0.133-0.275-0.243-0.451-0.331s-0.386-0.147-0.629-0.18l2.226-2.698h-0.908l-2.017 2.61h-0.236v-2.61h-0.76zM60.061 25.603v5.884h0.812l1.842-2.933c0.204-0.324 0.399-0.653 0.588-0.986s0.358-0.662 0.503-0.987l0.026 0.009c-0.020 0.246-0.035 0.491-0.045 0.737-0.010 0.248-0.016 0.506-0.020 0.776-0.003 0.271-0.005 0.563-0.005 0.879v2.506h0.716v-5.884h-0.759l-1.903 3.029c-0.214 0.348-0.412 0.684-0.594 1.007-0.182 0.322-0.344 0.636-0.489 0.94l-0.026-0.009c0.018-0.26 0.031-0.524 0.041-0.789s0.018-0.537 0.024-0.817c0.004-0.281 0.006-0.575 0.006-0.882v-2.48h-0.716zM68.844 28.1h-2.279v-1.859h2.418v-0.638h-3.187v5.884h3.318v-0.637h-2.549v-2.121h2.279v-0.629zM118.207 25.603v5.884h0.768v-2.759h2.847v2.759h0.768v-5.884h-0.768v2.462h-2.847v-2.462h-0.768zM126.282 25.498c-0.394 0.001-0.758 0.074-1.089 0.22s-0.618 0.354-0.862 0.624c-0.244 0.272-0.434 0.597-0.568 0.975-0.135 0.38-0.203 0.803-0.205 1.272 0.001 0.446 0.066 0.852 0.194 1.219 0.128 0.366 0.308 0.681 0.543 0.946s0.513 0.468 0.836 0.612c0.323 0.143 0.679 0.216 1.072 0.217 0.301 0 0.589-0.044 0.862-0.13 0.272-0.084 0.522-0.213 0.749-0.381 0.228-0.169 0.426-0.377 0.592-0.627 0.167-0.249 0.299-0.537 0.39-0.865s0.138-0.694 0.14-1.097c-0.001-0.441-0.064-0.842-0.188-1.206-0.124-0.365-0.301-0.68-0.534-0.944-0.231-0.266-0.51-0.471-0.836-0.615-0.324-0.144-0.691-0.219-1.095-0.22zM126.255 26.118c0.254 0.002 0.481 0.047 0.682 0.137 0.202 0.089 0.377 0.212 0.527 0.368 0.15 0.157 0.275 0.338 0.374 0.541s0.173 0.422 0.222 0.652c0.048 0.231 0.073 0.466 0.073 0.703 0 0.336-0.042 0.652-0.125 0.946s-0.205 0.553-0.365 0.777c-0.162 0.224-0.358 0.4-0.592 0.528-0.234 0.126-0.502 0.191-0.803 0.194-0.242-0.002-0.461-0.044-0.659-0.127-0.199-0.084-0.373-0.201-0.525-0.351s-0.281-0.326-0.385-0.525c-0.105-0.201-0.183-0.419-0.237-0.655s-0.080-0.48-0.080-0.735c0-0.257 0.025-0.508 0.076-0.748 0.049-0.24 0.125-0.464 0.226-0.67 0.101-0.205 0.228-0.386 0.379-0.541s0.329-0.275 0.531-0.361c0.202-0.087 0.429-0.131 0.682-0.132zM129.45 25.603l2.078 2.707c-0.228 0.029-0.425 0.084-0.592 0.167-0.166 0.083-0.31 0.189-0.43 0.32s-0.225 0.284-0.315 0.457c-0.089 0.173-0.17 0.366-0.243 0.575-0.063 0.183-0.124 0.368-0.183 0.554s-0.121 0.371-0.187 0.556c-0.065 0.185-0.141 0.368-0.224 0.548h0.777c0.064-0.132 0.122-0.279 0.178-0.44 0.054-0.16 0.106-0.32 0.156-0.483s0.097-0.316 0.147-0.457c0.068-0.202 0.143-0.383 0.221-0.546 0.080-0.162 0.175-0.3 0.286-0.414s0.247-0.204 0.41-0.265c0.161-0.061 0.359-0.093 0.594-0.093h0.271v2.698h0.733v-2.698h0.262c0.234 0 0.432 0.032 0.595 0.093 0.161 0.061 0.298 0.15 0.409 0.265s0.205 0.253 0.285 0.414c0.078 0.163 0.153 0.344 0.221 0.546 0.047 0.141 0.094 0.294 0.143 0.457 0.048 0.163 0.1 0.323 0.154 0.483s0.117 0.307 0.183 0.44h0.777c-0.080-0.18-0.153-0.364-0.215-0.548s-0.124-0.371-0.18-0.559c-0.057-0.188-0.118-0.374-0.181-0.56-0.072-0.211-0.154-0.403-0.244-0.578s-0.196-0.327-0.319-0.46c-0.122-0.131-0.267-0.237-0.436-0.319-0.168-0.080-0.368-0.133-0.598-0.154l2.086-2.707h-0.881l-1.825 2.61h-0.236v-2.61h-0.733v2.61h-0.237l-1.824-2.61h-0.882zM136.915 25.603v5.884h0.812l1.842-2.933c0.204-0.324 0.399-0.653 0.588-0.986s0.358-0.662 0.503-0.987l0.026 0.009c-0.020 0.246-0.034 0.491-0.045 0.737-0.010 0.248-0.016 0.506-0.020 0.776-0.003 0.271-0.005 0.563-0.005 0.879v2.506h0.717v-5.884h-0.76l-1.903 3.029c-0.214 0.348-0.412 0.684-0.594 1.007-0.182 0.322-0.345 0.636-0.489 0.94l-0.026-0.009c0.017-0.26 0.030-0.524 0.041-0.789s0.017-0.537 0.023-0.817c0.004-0.281 0.006-0.575 0.006-0.882v-2.48h-0.716z"></path>
</svg>
