<!-- Generated by IcoMoon.io -->
<svg version="1.1" xmlns="http://www.w3.org/2000/svg" width="30" height="32" viewBox="0 0 30 32">
<title>phone</title>
<path d="M29.229 23.359l-3.73-3.937c-1.028-1.085-2.701-1.085-3.73 0l-1.695 1.79c-0.779 0.822-2.047 0.822-2.825 0l-7.348-7.764c-0.781-0.824-0.781-2.158 0-2.983 0.273-0.288 1.057-1.116 1.695-1.79 1.024-1.081 1.038-2.841-0.001-3.938l-3.729-3.924c-1.028-1.085-2.701-1.085-3.727-0.003-0.767 0.803-1.015 1.062-1.359 1.422-3.708 3.914-3.708 10.283-0 14.197l11.643 12.297c3.717 3.923 9.732 3.924 13.449 0l1.356-1.432c1.028-1.085 1.028-2.852 0-3.937zM5.38 2.127c0.343-0.362 0.9-0.362 1.244 0.001l3.729 3.924c0.344 0.363 0.344 0.95 0 1.312l-0.622 0.656-4.97-5.246 0.618-0.647zM15.667 27.416l-11.643-12.297c-2.869-3.028-3.026-7.784-0.485-11.011l4.955 5.231c-1.302 1.558-1.248 3.932 0.163 5.422l7.348 7.763c0 0 0 0 0 0 1.41 1.488 3.659 1.549 5.136 0.173l4.955 5.231c-3.047 2.678-7.542 2.537-10.43-0.512zM27.986 25.984l-0.622 0.656-4.973-5.25 0.622-0.656c0.343-0.362 0.9-0.362 1.243 0l3.73 3.937c0.343 0.362 0.343 0.951 0 1.312z"></path>
</svg>
