<!-- Generated by IcoMoon.io -->
<svg version="1.1" xmlns="http://www.w3.org/2000/svg" width="24" height="32" viewBox="0 0 24 32">
<title>user</title>
<path d="M11.69 16.896c0.029 0 0.057 0 0.092 0 0.011 0 0.023 0 0.034 0 0.017 0 0.040 0 0.057 0 1.682-0.032 3.043-0.683 4.047-1.928 2.21-2.743 1.843-7.446 1.803-7.895-0.143-3.369-1.59-4.981-2.784-5.733-0.89-0.563-1.929-0.866-3.088-0.891h-0.040c-0.006 0-0.017 0-0.023 0h-0.034c-0.637 0-1.889 0.114-3.088 0.866-1.206 0.752-2.675 2.364-2.819 5.758-0.040 0.449-0.408 5.152 1.803 7.895 0.999 1.245 2.359 1.896 4.041 1.928zM7.379 7.231c0-0.019 0.006-0.038 0.006-0.051 0.189-4.532 3.111-5.019 4.363-5.019h0.023c0.011 0 0.029 0 0.046 0 1.55 0.038 4.185 0.733 4.363 5.019 0 0.019 0 0.038 0.006 0.051 0.006 0.044 0.408 4.342-1.418 6.605-0.723 0.898-1.688 1.34-2.956 1.353-0.011 0-0.017 0-0.029 0s-0.017 0-0.029 0c-1.263-0.013-2.233-0.455-2.951-1.353-1.82-2.25-1.429-6.567-1.424-6.605z"></path>
<path d="M23.579 24.696c0-0.006 0-0.013 0-0.019 0-0.051-0.006-0.101-0.006-0.158-0.034-1.252-0.109-4.178-2.601-5.114-0.017-0.006-0.040-0.013-0.057-0.019-2.589-0.727-4.742-2.37-4.765-2.389-0.35-0.272-0.832-0.177-1.079 0.209s-0.161 0.917 0.189 1.188c0.098 0.076 2.382 1.827 5.241 2.636 1.338 0.525 1.487 2.099 1.527 3.54 0 0.057 0 0.107 0.006 0.158 0.006 0.569-0.029 1.448-0.121 1.953-0.93 0.582-4.575 2.592-10.121 2.592-5.523 0-9.191-2.016-10.127-2.598-0.092-0.506-0.132-1.384-0.121-1.953 0-0.051 0.006-0.101 0.006-0.158 0.040-1.441 0.189-3.015 1.527-3.54 2.859-0.809 5.144-2.566 5.241-2.636 0.35-0.272 0.436-0.803 0.189-1.188s-0.729-0.48-1.079-0.209c-0.023 0.019-2.164 1.662-4.765 2.389-0.023 0.006-0.040 0.013-0.057 0.019-2.491 0.942-2.566 3.868-2.601 5.114 0 0.057 0 0.107-0.006 0.158 0 0.006 0 0.013 0 0.019-0.006 0.329-0.011 2.016 0.293 2.863 0.057 0.164 0.161 0.303 0.299 0.398 0.172 0.126 4.3 3.021 11.206 3.021s11.034-2.901 11.206-3.021c0.132-0.095 0.241-0.234 0.299-0.398 0.287-0.841 0.281-2.528 0.276-2.857z"></path>
</svg>
